<svg width="69" height="69" viewBox="0 0 69 69" xmlns="http://www.w3.org/2000/svg">
<path d="M12.4488 10.9569C10.8839 13.3754 11.3818 14.1579 21.4829 25.1837L29.9478 34.36L27.5293 36.9208C18.7798 46.2393 11.3818 54.9177 11.3818 55.8424C11.3818 57.5496 13.9427 59.6837 15.5076 59.2569C16.2901 59.1146 20.6293 54.7043 25.253 49.5826C29.8767 44.3898 34.0025 40.1218 34.4293 40.0507C34.8561 39.9795 38.7684 43.963 43.0365 48.8002C47.3757 53.7084 51.5726 58.1898 52.4262 58.8301C54.6313 60.3239 56.9076 58.9723 56.9076 56.127C56.9076 54.0641 56.3385 53.3527 40.6891 36.2094L38.9818 34.2888L47.9447 24.5435C54.8447 17.0744 56.9076 14.3713 56.9076 12.8775C56.9076 10.6723 55.7695 9.24964 53.9911 9.24964C53.2798 9.24964 48.7272 13.6599 43.6767 19.2084C38.7684 24.6857 34.5715 29.1672 34.5004 29.1672C34.4293 29.1672 30.2324 24.6857 25.253 19.2084C19.7757 13.0909 15.721 9.24964 14.8674 9.24964C14.1561 9.24964 13.0179 10.0321 12.4488 10.9569Z" />
</svg>
