<svg width="150" height="150" viewBox="0 0 150 150" xmlns="http://www.w3.org/2000/svg">
    <path
        d="M75.9462 45.339C77.8381 47.0282 79.0543 48.6498 79.0543 49.5282C79.0543 50.4742 76.1489 54.0553 70.9462 59.5958C66.4867 64.258 62.8381 68.312 62.8381 68.5147C62.8381 68.7174 73.6489 68.9201 86.8246 68.9201H110.811L111.487 70.6769C112.365 72.839 112.365 76.4877 111.487 78.6498L110.811 80.4066H86.757C72.0948 80.4066 62.8381 80.6769 62.9732 81.0147C63.0408 81.4201 66.757 85.4742 71.0813 90.1363C75.8786 95.2039 79.0543 99.0552 79.0543 99.9336C79.0543 101.42 74.9327 105.812 72.8381 106.42C71.8921 106.758 70.2029 105.609 66.3516 102.163C58.784 95.2715 39.8651 76.0147 39.8651 75.2039C39.8651 73.6498 45.6759 67.3661 58.3111 55.2039C65.5408 48.2444 71.757 42.5688 72.1624 42.5688C72.5002 42.5688 74.1894 43.785 75.9462 45.339Z"
         />
</svg>