<svg width="332" height="88" viewBox="0 0 332 88" xmlns="http://www.w3.org/2000/svg">
<path d="M317.855 3.81177C317.196 4.3251 314.337 9.01843 311.406 14.2984C308.548 19.5051 305.909 24.1251 305.543 24.5651C305.103 25.0051 296.455 25.4451 284.142 25.6651C263.695 26.0318 263.401 26.0318 259.81 27.9384C257.612 29.0384 255.12 31.1651 253.507 33.2918C249.403 38.7184 235.991 64.7518 235.991 67.3184C235.991 70.3251 238.336 72.9651 242.441 74.5784C245.519 75.7518 248.377 75.8984 269.484 75.8984H293.01L294.842 74.2118C297.041 72.0851 308.767 50.0118 308.181 49.0584C307.521 48.0318 299.313 48.2518 296.528 49.4251C293.89 50.5251 292.644 52.2851 288.027 61.4518L285.022 67.4651H268.971H252.848L251.602 65.5584C250.429 63.6518 250.429 63.5051 255.34 53.8984C258.125 48.5451 261.569 42.0918 263.035 39.5251L265.747 34.8318L289.272 34.4651L312.872 34.0984L315.144 31.8984C317.415 29.7718 329.068 7.25843 329.068 4.9851C329.068 3.15177 320.054 2.19843 317.855 3.81177Z"/>
<path d="M38.0372 27.059C32.9803 28.6723 28.0699 31.9723 25.2849 35.639C22.3533 39.4523 5.86328 71.4256 5.86328 73.259C5.86328 74.0656 6.52288 75.0923 7.25578 75.5323C8.13525 75.9723 16.8567 76.2656 30.5617 76.2656C54.3074 76.2656 56.8726 75.899 63.7617 72.159C70.3578 68.5656 71.4571 66.9523 85.0889 40.3323C87.8739 34.8323 90.1459 29.699 90.1459 28.8923C90.1459 25.739 89.4863 25.6656 65.3008 25.739C45.1463 25.739 41.6284 25.8856 38.0372 27.059ZM75.5613 33.879C75.7812 36.0056 75.0483 37.4723 68.7454 48.4723C60.4637 62.919 57.5322 66.8056 54.2341 67.979C52.5485 68.5656 46.3189 68.859 36.8646 68.859L21.9869 68.9323V67.1723C21.9869 65.0456 31.8077 45.539 35.7653 39.6723C40.2359 33.219 40.9688 32.999 59.511 32.999C71.7503 32.999 75.488 33.219 75.5613 33.879Z" />
<path d="M189.746 27.354C184.176 29.2606 179.778 32.0473 177.506 35.2006C176.627 36.374 172.596 43.854 168.565 51.7006C160.577 67.3206 159.77 70.5473 162.629 74.1406L164.021 75.9006L188.133 76.1206C201.325 76.2673 212.905 76.1206 213.785 75.9006C215.837 75.3873 217.156 72.9673 216.643 70.8406C215.91 67.834 213.565 67.4673 194.876 67.4673H177.36L176.554 65.7073C175.821 64.1673 176.554 62.334 182.417 50.8206C186.081 43.5606 189.746 36.9606 190.625 36.0806C192.018 34.5406 192.531 34.4673 210.34 34.4673H228.662V36.154C228.662 38.2806 224.998 44.1473 222.726 45.7606C221.333 46.714 218.915 46.934 209.094 46.934C195.536 46.934 193.483 47.374 193.483 50.454C193.483 54.1206 193.996 54.2673 210.853 54.2673C223.239 54.2673 226.977 54.0473 228.662 53.1673C230.128 52.434 231.814 49.9406 234.819 44.074C239.143 35.5673 239.802 32.414 237.75 29.4806C235.258 25.8873 233.719 25.6673 213.491 25.6673C195.829 25.6673 194.29 25.814 189.746 27.354Z" />
<path d="M119.389 27.0621C114.552 28.0155 108.688 31.4621 105.024 35.4955C102.605 38.1355 99.1609 43.9288 94.1772 53.6821C85.9688 69.6688 85.8955 70.5488 90.8059 73.8488C94.9834 76.7088 97.9883 77.1488 116.237 77.5155C136.099 77.9555 141.595 77.5888 143.721 75.4621C145.48 73.7021 145.48 72.4555 143.721 70.3288C142.328 68.5688 142.255 68.5688 122.613 68.2021L102.972 67.8355L103.045 64.9021C103.118 62.7021 104.658 59.0355 109.128 50.6021C112.426 44.3688 115.798 38.4288 116.53 37.4021L117.923 35.5688L141.082 35.2021C162.996 34.8355 164.315 34.7621 165.341 33.4421C166.734 31.4621 166.66 29.6288 164.901 27.8688C163.509 26.4755 162.483 26.4021 142.768 26.4755C131.335 26.5488 120.854 26.7688 119.389 27.0621Z" />
</svg>
