<svg width="150" height="150" viewBox="0 0 150 150" xmlns="http://www.w3.org/2000/svg">
    <path
        d="M74.0538 45.339C72.1619 47.0282 70.9457 48.6498 70.9457 49.5282C70.9457 50.4742 73.8511 54.0553 79.0538 59.5958C83.5133 64.258 87.1619 68.312 87.1619 68.5147C87.1619 68.7174 76.3511 68.9201 63.1754 68.9201H39.189L38.5133 70.6769C37.6349 72.839 37.6349 76.4877 38.5133 78.6498L39.189 80.4066H63.243C77.9052 80.4066 87.1619 80.6769 87.0268 81.0147C86.9592 81.4201 83.243 85.4742 78.9187 90.1363C74.1214 95.2039 70.9457 99.0552 70.9457 99.9336C70.9457 101.42 75.0673 105.812 77.1619 106.42C78.1079 106.758 79.7971 105.609 83.6484 102.163C91.216 95.2715 110.135 76.0147 110.135 75.2039C110.135 73.6498 104.324 67.3661 91.6889 55.2039C84.4592 48.2444 78.243 42.5688 77.8376 42.5688C77.4998 42.5688 75.8106 43.785 74.0538 45.339Z" />
</svg>