<svg width="150" height="150" viewBox="0 0 150 150" xmlns="http://www.w3.org/2000/svg">
<path d="M45.3381 75.9491C47.0272 77.841 48.6489 79.0572 49.5272 79.0572C50.4732 79.0572 54.0543 76.1518 59.5948 70.9491C64.257 66.4897 68.311 62.841 68.5137 62.841C68.7164 62.841 68.9191 73.6518 68.9191 86.8275V110.814L70.6759 111.49C72.8381 112.368 76.4867 112.368 78.6489 111.49L80.4056 110.814V86.7599C80.4056 72.0978 80.6759 62.841 81.0137 62.9761C81.4191 63.0437 85.4732 66.7599 90.1354 71.0843C95.2029 75.8815 99.0543 79.0572 99.9327 79.0572C101.419 79.0572 105.811 74.9356 106.419 72.841C106.757 71.8951 105.608 70.2059 102.162 66.3545C95.2705 58.787 76.0137 39.868 75.2029 39.868C73.6489 39.868 67.3651 45.6788 55.2029 58.314C48.2435 65.5437 42.5678 71.7599 42.5678 72.1653C42.5678 72.5032 43.784 74.1924 45.3381 75.9491Z" />
</svg>
