<svg width="102" height="102" viewBox="0 0 102 102" xmlns="http://www.w3.org/2000/svg">
<path d="M10.0871 3.74333C8.04712 5.10333 5.10046 8.05 3.74046 10.09C1.13379 13.9433 1.13379 14.3967 1.13379 50.6633C1.13379 90.67 1.13379 90.4433 7.82046 96.9033C11.1071 99.85 12.2405 100.303 21.3071 100.87C26.8605 101.21 44.5405 101.21 60.7471 100.87C103.587 100.077 101.32 102.91 100.98 50.55C100.754 16.0967 100.64 14.17 98.4871 10.2033C97.1271 7.82333 94.1805 4.87666 91.8005 3.51666C87.7205 1.25 86.1338 1.13666 50.7738 1.13666C14.2805 1.13666 13.9405 1.13666 10.0871 3.74333ZM86.8138 20.97C87.4938 22.7833 79.9005 61.2033 76.1605 74.8033C73.5538 84.55 71.8538 84.7767 61.8805 76.5033C57.6871 73.1033 53.8338 70.27 53.2671 70.27C52.7005 70.27 50.4338 72.5367 48.0538 75.37C41.4805 83.53 39.8938 82.7367 35.1338 68.7967L31.1671 57.2367L22.8938 54.63C16.4338 52.4767 14.7338 51.4567 14.7338 49.7567C14.7338 47.15 16.5471 46.2433 52.5871 31.6233C66.1871 26.07 78.2005 20.97 79.2205 20.4033C82.0538 18.8167 86.1338 19.0433 86.8138 20.97Z" />
<path d="M52.1341 45.4488C44.9941 49.7554 38.4208 53.7221 37.5141 54.2888C36.1541 55.0821 36.2674 56.5554 38.0808 63.5821L40.2341 71.9688L41.0274 65.7354C41.5941 60.6354 42.3874 58.9354 45.5608 56.1021C47.6008 54.2888 53.1541 49.3021 57.8008 45.1088C62.4474 40.9154 66.0741 37.5154 65.7341 37.5154C65.3941 37.5154 59.2741 41.1421 52.1341 45.4488Z" />
</svg>
